<mxfile host="app.diagrams.net" modified="2024-02-01T01:05:52.189Z" agent="Mozilla/5.0 (Windows NT 10.0; Win64; x64) AppleWebKit/537.36 (KHTML, like Gecko) Chrome/120.0.0.0 Safari/537.36" etag="gA9G9pMEZbmCIRS7Bw7E" version="23.1.0" type="github">
  <diagram name="Page-1" id="p3lhrqvQwDTXhARdmfb1">
    <mxGraphModel dx="1434" dy="772" grid="1" gridSize="10" guides="1" tooltips="1" connect="1" arrows="1" fold="1" page="1" pageScale="1" pageWidth="850" pageHeight="1100" math="0" shadow="0">
      <root>
        <mxCell id="0" />
        <mxCell id="1" parent="0" />
        <mxCell id="WrAboOgv-maCJakZNw3--1" value="Pengunjung" style="shape=umlActor;verticalLabelPosition=bottom;verticalAlign=top;html=1;outlineConnect=0;" vertex="1" parent="1">
          <mxGeometry x="140" y="300" width="50" height="90" as="geometry" />
        </mxCell>
        <mxCell id="WrAboOgv-maCJakZNw3--2" value="Pustakawan" style="shape=umlActor;verticalLabelPosition=bottom;verticalAlign=top;html=1;outlineConnect=0;" vertex="1" parent="1">
          <mxGeometry x="590" y="300" width="50" height="90" as="geometry" />
        </mxCell>
        <mxCell id="WrAboOgv-maCJakZNw3--4" value="" style="rounded=0;whiteSpace=wrap;html=1;" vertex="1" parent="1">
          <mxGeometry x="280" y="140" width="230" height="440" as="geometry" />
        </mxCell>
        <mxCell id="WrAboOgv-maCJakZNw3--5" value="Perpus Digital" style="text;strokeColor=none;align=center;fillColor=none;html=1;verticalAlign=middle;whiteSpace=wrap;rounded=0;" vertex="1" parent="1">
          <mxGeometry x="340" y="150" width="85" height="30" as="geometry" />
        </mxCell>
        <mxCell id="WrAboOgv-maCJakZNw3--6" value="Form Pengunjung" style="ellipse;whiteSpace=wrap;html=1;" vertex="1" parent="1">
          <mxGeometry x="330" y="210" width="130" height="60" as="geometry" />
        </mxCell>
        <mxCell id="WrAboOgv-maCJakZNw3--7" value="Pencarian Buku" style="ellipse;whiteSpace=wrap;html=1;" vertex="1" parent="1">
          <mxGeometry x="330" y="300" width="130" height="60" as="geometry" />
        </mxCell>
        <mxCell id="WrAboOgv-maCJakZNw3--8" value="Detail buku" style="ellipse;whiteSpace=wrap;html=1;" vertex="1" parent="1">
          <mxGeometry x="330" y="390" width="130" height="60" as="geometry" />
        </mxCell>
        <mxCell id="WrAboOgv-maCJakZNw3--9" value="Laporan Statistik" style="ellipse;whiteSpace=wrap;html=1;" vertex="1" parent="1">
          <mxGeometry x="330" y="480" width="130" height="60" as="geometry" />
        </mxCell>
        <mxCell id="WrAboOgv-maCJakZNw3--14" value="" style="endArrow=none;html=1;rounded=0;entryX=0.031;entryY=0.4;entryDx=0;entryDy=0;entryPerimeter=0;" edge="1" parent="1" target="WrAboOgv-maCJakZNw3--6">
          <mxGeometry width="50" height="50" relative="1" as="geometry">
            <mxPoint x="190" y="330" as="sourcePoint" />
            <mxPoint x="240" y="280" as="targetPoint" />
            <Array as="points">
              <mxPoint x="230" y="234" />
            </Array>
          </mxGeometry>
        </mxCell>
        <mxCell id="WrAboOgv-maCJakZNw3--15" value="" style="endArrow=none;html=1;rounded=0;exitX=1;exitY=0.3333333333333333;exitDx=0;exitDy=0;exitPerimeter=0;entryX=0;entryY=0.5;entryDx=0;entryDy=0;" edge="1" parent="1" source="WrAboOgv-maCJakZNw3--1" target="WrAboOgv-maCJakZNw3--7">
          <mxGeometry width="50" height="50" relative="1" as="geometry">
            <mxPoint x="280" y="400" as="sourcePoint" />
            <mxPoint x="330" y="350" as="targetPoint" />
          </mxGeometry>
        </mxCell>
        <mxCell id="WrAboOgv-maCJakZNw3--16" value="" style="endArrow=none;html=1;rounded=0;exitX=1;exitY=0.3333333333333333;exitDx=0;exitDy=0;exitPerimeter=0;" edge="1" parent="1" source="WrAboOgv-maCJakZNw3--1">
          <mxGeometry width="50" height="50" relative="1" as="geometry">
            <mxPoint x="280" y="470" as="sourcePoint" />
            <mxPoint x="330" y="420" as="targetPoint" />
          </mxGeometry>
        </mxCell>
        <mxCell id="WrAboOgv-maCJakZNw3--17" value="" style="endArrow=none;html=1;rounded=0;exitX=1;exitY=0.5;exitDx=0;exitDy=0;" edge="1" parent="1" source="WrAboOgv-maCJakZNw3--6">
          <mxGeometry width="50" height="50" relative="1" as="geometry">
            <mxPoint x="540" y="380" as="sourcePoint" />
            <mxPoint x="590" y="330" as="targetPoint" />
            <Array as="points">
              <mxPoint x="570" y="240" />
            </Array>
          </mxGeometry>
        </mxCell>
        <mxCell id="WrAboOgv-maCJakZNw3--18" value="" style="endArrow=none;html=1;rounded=0;" edge="1" parent="1" source="WrAboOgv-maCJakZNw3--7">
          <mxGeometry width="50" height="50" relative="1" as="geometry">
            <mxPoint x="540" y="380" as="sourcePoint" />
            <mxPoint x="590" y="330" as="targetPoint" />
          </mxGeometry>
        </mxCell>
        <mxCell id="WrAboOgv-maCJakZNw3--19" value="" style="endArrow=none;html=1;rounded=0;exitX=1;exitY=0.5;exitDx=0;exitDy=0;" edge="1" parent="1" source="WrAboOgv-maCJakZNw3--8">
          <mxGeometry width="50" height="50" relative="1" as="geometry">
            <mxPoint x="468" y="353" as="sourcePoint" />
            <mxPoint x="590" y="330" as="targetPoint" />
          </mxGeometry>
        </mxCell>
        <mxCell id="WrAboOgv-maCJakZNw3--20" value="" style="endArrow=none;html=1;rounded=0;exitX=1;exitY=0.5;exitDx=0;exitDy=0;" edge="1" parent="1" source="WrAboOgv-maCJakZNw3--9">
          <mxGeometry width="50" height="50" relative="1" as="geometry">
            <mxPoint x="470" y="430" as="sourcePoint" />
            <mxPoint x="590" y="330" as="targetPoint" />
          </mxGeometry>
        </mxCell>
      </root>
    </mxGraphModel>
  </diagram>
</mxfile>
